<?xml version="1.0" encoding="UTF-8" standalone="no"?>
<svg
   xmlns:dc="http://purl.org/dc/elements/1.1/"
   xmlns:cc="http://creativecommons.org/ns#"
   xmlns:rdf="http://www.w3.org/1999/02/22-rdf-syntax-ns#"
   xmlns:svg="http://www.w3.org/2000/svg"
   xmlns="http://www.w3.org/2000/svg"
   xmlns:sodipodi="http://sodipodi.sourceforge.net/DTD/sodipodi-0.dtd"
   xmlns:inkscape="http://www.inkscape.org/namespaces/inkscape"
   viewBox="0 0 28 28"
   version="1.1"
   id="svg4"
   sodipodi:docname="align-justify.svg"
   width="28"
   height="28"
   inkscape:version="0.92.4 5da689c313, 2019-01-14">
  <metadata
     id="metadata10">
    <rdf:RDF>
      <cc:Work
         rdf:about="">
        <dc:format>image/svg+xml</dc:format>
        <dc:type
           rdf:resource="http://purl.org/dc/dcmitype/StillImage" />
        <dc:title></dc:title>
      </cc:Work>
    </rdf:RDF>
  </metadata>
  <defs
     id="defs8" />
  <sodipodi:namedview
     pagecolor="#ffffff"
     bordercolor="#666666"
     borderopacity="1"
     objecttolerance="10"
     gridtolerance="10"
     guidetolerance="10"
     inkscape:pageopacity="0"
     inkscape:pageshadow="2"
     inkscape:window-width="1920"
     inkscape:window-height="1047"
     id="namedview6"
     showgrid="false"
     fit-margin-top="0"
     fit-margin-left="0"
     fit-margin-right="0"
     fit-margin-bottom="0"
     inkscape:zoom="3.6875"
     inkscape:cx="-30.253657"
     inkscape:cy="6.054824"
     inkscape:window-x="0"
     inkscape:window-y="33"
     inkscape:window-maximized="1"
     inkscape:current-layer="svg4" />
  <path
     d="M 27.000004,23.999998 H 0.9999966 A 1,1 0 0 0 0,25.000002 v 2.000002 A 1,1 0 0 0 0.9999966,28 H 27.000004 A 1,1 0 0 0 28,27.000004 v -2.000002 a 1,1 0 0 0 -0.999996,-1.000004 z m 0,-7.999997 H 0.9999966 A 1,1 0 0 0 0,16.999998 v 2 a 1,1 0 0 0 0.9999966,1.000006 H 27.000004 A 1,1 0 0 0 28,18.999998 v -2 a 1,1 0 0 0 -0.999996,-0.999997 z m 0,-8.0000046 H 0.9999966 A 1,1 0 0 0 0,9.000002 v 2 a 1,1 0 0 0 0.9999966,0.999997 H 27.000004 A 1,1 0 0 0 28,11.000002 v -2 A 1,1 0 0 0 27.000004,7.9999964 Z M 27.000004,0 H 0.9999966 A 1,1 0 0 0 0,0.9999966 V 2.9999978 A 1,1 0 0 0 0.9999966,4.0000022 H 27.000004 A 1,1 0 0 0 28,2.9999978 V 0.9999966 A 1,1 0 0 0 27.000004,0 Z"
     id="path2"
     inkscape:connector-curvature="0"
     style="fill:#ff4040;fill-opacity:1;stroke-width:0.0625" />
</svg>
