<?xml version="1.0" encoding="UTF-8" standalone="no"?>
<svg
   xmlns:dc="http://purl.org/dc/elements/1.1/"
   xmlns:cc="http://creativecommons.org/ns#"
   xmlns:rdf="http://www.w3.org/1999/02/22-rdf-syntax-ns#"
   xmlns:svg="http://www.w3.org/2000/svg"
   xmlns="http://www.w3.org/2000/svg"
   xmlns:sodipodi="http://sodipodi.sourceforge.net/DTD/sodipodi-0.dtd"
   xmlns:inkscape="http://www.inkscape.org/namespaces/inkscape"
   viewBox="0 0 28 28"
   version="1.1"
   id="svg4"
   sodipodi:docname="align-center.svg"
   width="28"
   height="28"
   inkscape:version="0.92.4 5da689c313, 2019-01-14">
  <metadata
     id="metadata10">
    <rdf:RDF>
      <cc:Work
         rdf:about="">
        <dc:format>image/svg+xml</dc:format>
        <dc:type
           rdf:resource="http://purl.org/dc/dcmitype/StillImage" />
        <dc:title></dc:title>
      </cc:Work>
    </rdf:RDF>
  </metadata>
  <defs
     id="defs8" />
  <sodipodi:namedview
     pagecolor="#ffffff"
     bordercolor="#666666"
     borderopacity="1"
     objecttolerance="10"
     gridtolerance="10"
     guidetolerance="10"
     inkscape:pageopacity="0"
     inkscape:pageshadow="2"
     inkscape:window-width="1920"
     inkscape:window-height="1047"
     id="namedview6"
     showgrid="false"
     fit-margin-top="0"
     fit-margin-left="0"
     fit-margin-right="0"
     fit-margin-bottom="0"
     inkscape:zoom="3.6875"
     inkscape:cx="-7.7355953"
     inkscape:cy="0.47417501"
     inkscape:window-x="0"
     inkscape:window-y="33"
     inkscape:window-maximized="1"
     inkscape:current-layer="svg4" />
  <path
     d="M 27.000003,20.000003 H 0.9999967 A 0.99999996,0.99999995 0 0 1 0,18.999998 V 16.999997 A 0.99999996,0.99999995 0 0 1 0.9999967,16.000002 H 27.000003 A 0.99999996,0.99999995 0 0 1 28,16.999997 v 2.000001 a 0.99999996,0.99999995 0 0 1 -0.999997,1.000005 z m 0,-16.0000007 H 0.9999967 A 0.99999996,0.99999995 0 0 1 0,2.9999979 V 0.9999969 A 0.99999996,0.99999995 0 0 1 0.9999967,0 H 27.000003 A 0.99999996,0.99999995 0 0 1 28,0.9999969 v 2.000001 A 0.99999996,0.99999995 0 0 1 27.000003,4.0000023 Z M 6.7562525,23.999997 H 21.244377 a 0.75562501,0.75562498 0 0 1 0.75562,0.75625 v 2.488126 A 0.75562501,0.75562498 0 0 1 21.244377,28 H 6.7562525 A 0.75562501,0.75562498 0 0 1 6.0000033,27.244373 v -2.488126 a 0.75625,0.75624999 0 0 1 0.7562492,-0.75625 z M 21.244377,7.9999964 a 0.75562501,0.75562498 0 0 1 0.75562,0.7562565 v 2.4881201 a 0.75562501,0.75562498 0 0 1 -0.75562,0.755625 H 6.7562525 A 0.75562501,0.75562498 0 0 1 6.0000033,11.244373 V 8.7562529 A 0.75625,0.75624999 0 0 1 6.7562525,7.9999964 Z"
     id="path2"
     inkscape:connector-curvature="0"
     style="fill:#ff4040;fill-opacity:1;stroke-width:0.0625" />
</svg>
