<?xml version="1.0" encoding="UTF-8" standalone="no"?>
<svg
   xmlns:dc="http://purl.org/dc/elements/1.1/"
   xmlns:cc="http://creativecommons.org/ns#"
   xmlns:rdf="http://www.w3.org/1999/02/22-rdf-syntax-ns#"
   xmlns:svg="http://www.w3.org/2000/svg"
   xmlns="http://www.w3.org/2000/svg"
   xmlns:sodipodi="http://sodipodi.sourceforge.net/DTD/sodipodi-0.dtd"
   xmlns:inkscape="http://www.inkscape.org/namespaces/inkscape"
   viewBox="0 0 27 36"
   version="1.1"
   id="svg4"
   sodipodi:docname="file-pdf.svg"
   width="27"
   height="36"
   inkscape:version="0.92.4 5da689c313, 2019-01-14">
  <metadata
     id="metadata10">
    <rdf:RDF>
      <cc:Work
         rdf:about="">
        <dc:format>image/svg+xml</dc:format>
        <dc:type
           rdf:resource="http://purl.org/dc/dcmitype/StillImage" />
        <dc:title></dc:title>
      </cc:Work>
    </rdf:RDF>
  </metadata>
  <defs
     id="defs8" />
  <sodipodi:namedview
     pagecolor="#ffffff"
     bordercolor="#666666"
     borderopacity="1"
     objecttolerance="10"
     gridtolerance="10"
     guidetolerance="10"
     inkscape:pageopacity="0"
     inkscape:pageshadow="2"
     inkscape:window-width="1920"
     inkscape:window-height="1047"
     id="namedview6"
     showgrid="false"
     fit-margin-top="0"
     fit-margin-left="0"
     fit-margin-right="0"
     fit-margin-bottom="0"
     inkscape:zoom="3.6875"
     inkscape:cx="-82.000763"
     inkscape:cy="21.654813"
     inkscape:window-x="0"
     inkscape:window-y="33"
     inkscape:window-maximized="1"
     inkscape:current-layer="svg4" />
  <path
     d="m 12.78984,18.00703 c -0.35156,-1.125 -0.34453,-3.297659 -0.14062,-3.297659 0.59062,0 0.53437,2.594539 0.14062,3.297659 z m -0.11953,3.31875 c -0.5414,1.42031 -1.2164,3.04453 -1.99687,4.40859 1.28672,-0.49218 2.74218,-1.20937 4.42265,-1.53984 -0.892969,-0.675 -1.75078,-1.64531 -2.42578,-2.86875 z m -6.6164,8.775 c 0,0.05629 0.92812,-0.37969 2.4539,-2.82656 -0.47109,0.44297 -2.04609,1.72265 -2.4539,2.82656 z M 17.4375,11.25 H 27 V 34.3125 C 27,35.24766 26.24766,36 25.3125,36 H 1.6875 C 0.75234004,36 0,35.24766 0,34.3125 V 1.6875 C 0,0.75234 0.75234004,0 1.6875,0 H 15.75 v 9.5625 c 0,0.928121 0.75937,1.6875 1.6875,1.6875 z M 16.875,23.32969 c -1.40625,-0.857819 -2.34141,-2.03907 -3.00234,-3.78282 0.3164,-1.30078 0.81562,-3.27656 0.43593,-4.51406 -0.33047,-2.06719 -2.98125,-1.86328 -3.36093,-0.47812 -0.35157,1.28672 -0.0281,3.10078 0.56953,5.41406 -0.81563,1.940621 -2.01797,4.54219 -2.86875,6.03281 -0.007,0 -0.007,0.007 -0.0141,0.007 -1.90546,0.977351 -5.175,3.12891 -3.8320301,4.78125 0.39375,0.48516 1.125,0.70313 1.51172,0.70313 1.2586001,0 2.51016,-1.26563 4.2961001,-4.345309 1.814059,-0.597661 3.8039,-1.34297 5.55468,-1.63125 1.52578,0.829679 3.31172,1.371089 4.5,1.371089 2.053129,0 2.19375,-2.25 1.38516,-3.051559 -0.97734,-0.95625 -3.81797,-0.68203 -5.175,-0.50625 z M 26.50781,7.38281 19.61719,0.49219 C 19.30078,0.17578 18.87187,0 18.42187,0 H 18 v 9 h 9 V 8.57109 C 27,8.12812 26.82422,7.69922 26.50781,7.38281 Z m -5.21015,17.95078 c 0.28828,-0.18984 -0.17579,-0.83672 -3.00938,-0.63281 2.60859,1.11094 3.00938,0.63281 3.00938,0.63281 z"
     id="path2"
     inkscape:connector-curvature="0"
     style="fill:#ff4040;fill-opacity:1;stroke-width:0.0703125" />
</svg>
