<?xml version="1.0" encoding="UTF-8" standalone="no"?>
<svg
   xmlns:dc="http://purl.org/dc/elements/1.1/"
   xmlns:cc="http://creativecommons.org/ns#"
   xmlns:rdf="http://www.w3.org/1999/02/22-rdf-syntax-ns#"
   xmlns:svg="http://www.w3.org/2000/svg"
   xmlns="http://www.w3.org/2000/svg"
   xmlns:sodipodi="http://sodipodi.sourceforge.net/DTD/sodipodi-0.dtd"
   xmlns:inkscape="http://www.inkscape.org/namespaces/inkscape"
   viewBox="0 0 36 28.000004"
   version="1.1"
   id="svg4"
   sodipodi:docname="home.svg"
   width="36"
   height="28.000004"
   inkscape:version="0.92.4 5da689c313, 2019-01-14">
  <metadata
     id="metadata10">
    <rdf:RDF>
      <cc:Work
         rdf:about="">
        <dc:format>image/svg+xml</dc:format>
        <dc:type
           rdf:resource="http://purl.org/dc/dcmitype/StillImage" />
        <dc:title></dc:title>
      </cc:Work>
    </rdf:RDF>
  </metadata>
  <defs
     id="defs8" />
  <sodipodi:namedview
     pagecolor="#ffffff"
     bordercolor="#666666"
     borderopacity="1"
     objecttolerance="10"
     gridtolerance="10"
     guidetolerance="10"
     inkscape:pageopacity="0"
     inkscape:pageshadow="2"
     inkscape:window-width="1920"
     inkscape:window-height="1047"
     id="namedview6"
     showgrid="false"
     fit-margin-top="0"
     fit-margin-left="0"
     fit-margin-right="0"
     fit-margin-bottom="0"
     inkscape:zoom="7.375"
     inkscape:cx="-38.153748"
     inkscape:cy="4.0681371"
     inkscape:window-x="0"
     inkscape:window-y="33"
     inkscape:window-maximized="1"
     inkscape:current-layer="svg4" />
  <path
     d="M 17.52271,7.2639256 6.0004805,16.755587 v 10.244252 a 0.99992283,1.0001095 0 0 0 0.9999205,1.000106 l 7.003209,-0.0181 a 0.99992283,1.0001095 0 0 0 0.994921,-1.000117 v -5.982525 a 0.99992283,1.0001095 0 0 1 0.999929,-1.000107 h 3.99969 a 0.99992283,1.0001095 0 0 1 0.99992,1.000107 v 5.978154 a 0.99992283,1.0001095 0 0 0 0.99992,1.003238 l 7.000709,0.01941 a 0.99992283,1.0001095 0 0 0 0.99993,-1.000109 V 16.748765 L 18.47889,7.2639751 a 0.76181622,0.76195844 0 0 0 -0.95618,0 z M 35.723188,13.71525 30.498589,9.4079051 V 0.75008003 A 0.74994214,0.75008214 0 0 0 29.748649,0 h -3.49973 a 0.74994214,0.75008214 0 0 0 -0.74995,0.75008003 V 5.2887068 L 19.90378,0.68444777 a 2.9997686,3.0003286 0 0 0 -3.81221,0 L 0.27217094,13.71525 a 0.74994214,0.75008214 0 0 0 -0.1000001,1.056367 l 1.59361986,1.937712 a 0.74994214,0.75008214 0 0 0 1.0567999,0.101888 L 17.5227,4.7011372 a 0.76181622,0.76195844 0 0 1 0.95618,0 L 33.17962,16.811218 a 0.74994214,0.75008214 0 0 0 1.056169,-0.10002 l 1.59363,-1.937712 a 0.74994214,0.75008214 0 0 0 -0.106234,-1.058247 z"
     id="path2"
     inkscape:connector-curvature="0"
     style="fill:#ff4040;fill-opacity:1;stroke-width:0.062501" />
</svg>
