<?xml version="1.0" encoding="UTF-8" standalone="no"?>
<svg
   xmlns:dc="http://purl.org/dc/elements/1.1/"
   xmlns:cc="http://creativecommons.org/ns#"
   xmlns:rdf="http://www.w3.org/1999/02/22-rdf-syntax-ns#"
   xmlns:svg="http://www.w3.org/2000/svg"
   xmlns="http://www.w3.org/2000/svg"
   xmlns:sodipodi="http://sodipodi.sourceforge.net/DTD/sodipodi-0.dtd"
   xmlns:inkscape="http://www.inkscape.org/namespaces/inkscape"
   viewBox="0 0 36 28.000008"
   version="1.1"
   id="svg4"
   sodipodi:docname="homeru.svg"
   width="36"
   height="28.000008"
   inkscape:version="0.92.4 5da689c313, 2019-01-14">
  <metadata
     id="metadata10">
    <rdf:RDF>
      <cc:Work
         rdf:about="">
        <dc:format>image/svg+xml</dc:format>
        <dc:type
           rdf:resource="http://purl.org/dc/dcmitype/StillImage" />
        <dc:title></dc:title>
      </cc:Work>
    </rdf:RDF>
  </metadata>
  <defs
     id="defs8" />
  <sodipodi:namedview
     pagecolor="#ffffff"
     bordercolor="#666666"
     borderopacity="1"
     objecttolerance="10"
     gridtolerance="10"
     guidetolerance="10"
     inkscape:pageopacity="0"
     inkscape:pageshadow="2"
     inkscape:window-width="1920"
     inkscape:window-height="1047"
     id="namedview6"
     showgrid="false"
     fit-margin-top="0"
     fit-margin-left="0"
     fit-margin-right="0"
     fit-margin-bottom="0"
     inkscape:zoom="5.2149125"
     inkscape:cx="-71.065784"
     inkscape:cy="-13.205718"
     inkscape:window-x="0"
     inkscape:window-y="33"
     inkscape:window-maximized="1"
     inkscape:current-layer="svg4" />
  <path
     style="fill:#5499ff;fill-opacity:1;stroke-width:0.06250102"
     d="M 17.52271,7.2639259 6.0004805,16.755587 V 26.99984 a 0.99992299,1.0001096 0 0 0 0.99992,1.000107 l 7.0032095,-0.0181 a 0.99992299,1.0001096 0 0 0 0.99492,-1.000116 v -5.982528 a 0.99992299,1.0001096 0 0 1 0.99993,-1.000106 h 3.99969 a 0.99992299,1.0001096 0 0 1 0.99992,1.000106 v 5.978156 a 0.99992299,1.0001096 0 0 0 0.99992,1.003238 l 7.00071,0.01941 A 0.99992299,1.0001096 0 0 0 29.99863,26.9999 V 16.748767 L 18.47889,7.2639759 a 0.76181629,0.76195851 0 0 0 -0.95618,0 z"
     id="path814"
     inkscape:connector-curvature="0" />
  <path
     style="fill:#ff6464;fill-opacity:1;stroke-width:0.06250102"
     d="M 35.72319,13.715251 30.498591,9.407906 V 0.75008 A 0.74994221,0.75008221 0 0 0 29.74865,0 H 26.248921 A 0.74994221,0.75008221 0 0 0 25.49897,0.75008 V 5.2887072 L 19.90378,0.6844478 a 2.9997689,3.0003289 0 0 0 -3.81221,0 L 0.27217036,13.715251 a 0.74994221,0.75008221 0 0 0 -0.1,1.056366 l 1.59362004,1.937712 a 0.74994221,0.75008221 0 0 0 1.0568001,0.101889 L 17.5227,4.7011375 a 0.76181629,0.76195851 0 0 1 0.95618,0 L 33.17962,16.811218 a 0.74994221,0.75008221 0 0 0 1.05617,-0.100019 l 1.59363,-1.937711 A 0.74994221,0.75008221 0 0 0 35.72318,13.71524 Z"
     id="path2"
     inkscape:connector-curvature="0" />
</svg>
