<?xml version="1.0" encoding="UTF-8" standalone="no"?>
<!-- Created with Inkscape (http://www.inkscape.org/) -->

<svg
   xmlns:dc="http://purl.org/dc/elements/1.1/"
   xmlns:cc="http://creativecommons.org/ns#"
   xmlns:rdf="http://www.w3.org/1999/02/22-rdf-syntax-ns#"
   xmlns:svg="http://www.w3.org/2000/svg"
   xmlns="http://www.w3.org/2000/svg"
   xmlns:sodipodi="http://sodipodi.sourceforge.net/DTD/sodipodi-0.dtd"
   xmlns:inkscape="http://www.inkscape.org/namespaces/inkscape"
   version="1.0"
   width="36"
   height="36"
   id="svg2"
   xml:space="preserve"
   sodipodi:docname="in.svg"
   inkscape:version="0.92.4 5da689c313, 2019-01-14"><metadata
     id="metadata12"><rdf:RDF><cc:Work
         rdf:about=""><dc:format>image/svg+xml</dc:format><dc:type
           rdf:resource="http://purl.org/dc/dcmitype/StillImage" /><dc:title></dc:title></cc:Work></rdf:RDF></metadata><sodipodi:namedview
     pagecolor="#ffffff"
     bordercolor="#666666"
     borderopacity="1"
     objecttolerance="10"
     gridtolerance="10"
     guidetolerance="10"
     inkscape:pageopacity="0"
     inkscape:pageshadow="2"
     inkscape:window-width="1920"
     inkscape:window-height="1047"
     id="namedview10"
     showgrid="false"
     inkscape:zoom="5.6568543"
     inkscape:cx="-42.983419"
     inkscape:cy="1.3423988"
     inkscape:window-x="0"
     inkscape:window-y="33"
     inkscape:window-maximized="1"
     inkscape:current-layer="svg2"
     fit-margin-top="0"
     fit-margin-left="0"
     fit-margin-right="0"
     fit-margin-bottom="0" /><defs
     id="defs10"><filter
       style="color-interpolation-filters:sRGB"
       inkscape:label="Drop Shadow"
       id="filter828"><feFlood
         flood-opacity="0.498039"
         flood-color="rgb(0,0,0)"
         result="flood"
         id="feFlood818" /><feComposite
         in="flood"
         in2="SourceGraphic"
         operator="in"
         result="composite1"
         id="feComposite820" /><feGaussianBlur
         in="composite1"
         stdDeviation="1"
         result="blur"
         id="feGaussianBlur822" /><feOffset
         dx="1"
         dy="1"
         result="offset"
         id="feOffset824" /><feComposite
         in="SourceGraphic"
         in2="offset"
         operator="over"
         result="composite2"
         id="feComposite826" /></filter></defs><g
     id="g830"
     style="filter:url(#filter828)"
     transform="matrix(0.83333332,0,0,0.83333332,3.0000001,3.0000001)"><rect
       id="rect4117"
       style="fill:#ffffff;stroke-width:0.03265986"
       y="3.1424516e-15"
       x="0"
       height="36"
       width="36" /><path
       inkscape:connector-curvature="0"
       id="path2128"
       style="fill:#000066;stroke-width:0.04"
       d="m 23.399978,17.999989 c 0,2.982363 -2.417617,5.400007 -5.399981,5.400007 -2.982363,0 -5.39998,-2.417644 -5.39998,-5.400007 0,-2.982299 2.417617,-5.399993 5.39998,-5.399993 2.982364,0 5.399981,2.417694 5.399981,5.399993 z" /><path
       inkscape:connector-curvature="0"
       id="path6"
       style="fill:#ffffff;stroke-width:0.04"
       d="m 17.999997,17.999989 -0.164605,1.895586 0.143872,2.861172 c -0.100331,-3.6e-4 -0.200586,-0.0039 -0.300725,-0.01081 0.02165,-0.164669 -0.09422,-0.315719 -0.258967,-0.337356 -0.164669,-0.02166 -0.315694,0.09421 -0.337432,0.258878 -0.09843,-0.01937 -0.196233,-0.0418 -0.293281,-0.06735 l 0.879497,-2.726438 z m 0,0 -0.649612,1.788446 -0.601605,2.800971 c -0.0968,-0.02642 -0.192733,-0.05598 -0.287654,-0.0883 0.06359,-0.153544 -0.0093,-0.329464 -0.16276,-0.393076 -0.153481,-0.06356 -0.329401,0.0094 -0.392988,0.162734 -0.09003,-0.04414 -0.178706,-0.09113 -0.265826,-0.14092 l 1.555163,-2.405908 z m 0,0 -1.090328,1.559223 -1.306048,2.549831 c -0.08664,-0.05045 -0.171706,-0.103754 -0.25502,-0.159729 0.101107,-0.131628 0.07629,-0.32048 -0.05549,-0.421638 -0.131755,-0.101057 -0.320618,-0.07619 -0.421713,0.05547 -0.07559,-0.06585 -0.149001,-0.134198 -0.220313,-0.204912 l 2.124923,-1.921398 z m 0,0 -1.456804,1.224006 -1.92141,2.124834 c -0.07068,-0.07117 -0.138998,-0.144712 -0.205041,-0.220263 0.131844,-0.101234 0.156664,-0.289908 0.05556,-0.421713 -0.101119,-0.131755 -0.289906,-0.156651 -0.421662,-0.05552 -0.05598,-0.08326 -0.109202,-0.168309 -0.159769,-0.254957 l 2.549832,-1.305996 z m 0,0 -1.723917,0.805194 -2.405946,1.555176 c -0.04977,-0.08703 -0.0968,-0.175641 -0.14097,-0.265776 0.153417,-0.06356 0.226333,-0.239455 0.162771,-0.393052 -0.06357,-0.153391 -0.239569,-0.226269 -0.392974,-0.162683 -0.03248,-0.09492 -0.06193,-0.19081 -0.0883,-0.28759 l 2.800946,-0.60158 z m 0,0 -1.873605,0.331603 -2.726502,0.879472 c -0.02553,-0.09706 -0.04796,-0.194807 -0.06735,-0.293217 0.164669,-0.02181 0.280603,-0.172839 0.258941,-0.337508 -0.0217,-0.164669 -0.172763,-0.280515 -0.337406,-0.258877 -0.0068,-0.100142 -0.01042,-0.200384 -0.01084,-0.300726 l 2.861133,0.143744 z m 0,0 -1.895624,-0.164617 -2.861134,0.143871 c 3.6e-4,-0.100343 0.004,-0.200598 0.01084,-0.300738 0.164644,0.02165 0.315707,-0.0942 0.337407,-0.258954 0.02166,-0.164669 -0.09427,-0.31568 -0.258941,-0.337419 0.0194,-0.09844 0.04182,-0.196259 0.06735,-0.29328 l 2.726502,0.879471 z m 0,0 -1.788394,-0.649638 -2.800946,-0.601591 c 0.02637,-0.09681 0.05582,-0.19272 0.0883,-0.287642 0.153405,0.06357 0.329401,-0.0093 0.392974,-0.162772 0.06356,-0.153482 -0.0093,-0.329402 -0.162771,-0.392975 0.04416,-0.09006 0.0912,-0.17872 0.14097,-0.26584 l 2.405946,1.55515 z m 0,0 -1.559299,-1.090341 -2.549832,-1.306059 c 0.05057,-0.08667 0.103794,-0.171682 0.159769,-0.255009 0.131756,0.101108 0.320543,0.0763 0.421662,-0.05548 0.101109,-0.131755 0.07629,-0.320632 -0.05556,-0.421739 0.06604,-0.07558 0.134364,-0.149065 0.205041,-0.220289 l 1.92141,2.124911 z m 0,0 -1.223992,-1.456817 -2.124923,-1.92141 c 0.07131,-0.07068 0.144725,-0.13901 0.220313,-0.205027 0.101095,0.131844 0.289958,0.15665 0.421713,0.05556 0.131781,-0.10112 0.1566,-0.28992 0.05549,-0.421675 0.08331,-0.05598 0.168384,-0.109189 0.25502,-0.159769 l 1.306048,2.549755 z m 0,0 -0.805282,-1.723917 -1.555163,-2.405959 c 0.08712,-0.04978 0.175793,-0.09682 0.265826,-0.140958 0.06359,0.153406 0.239507,0.226308 0.392988,0.162773 0.153507,-0.06359 0.226347,-0.23957 0.16276,-0.392988 0.09492,-0.03248 0.190849,-0.06194 0.287654,-0.08832 l 0.601605,2.800971 z m 0,0 -0.331641,-1.873605 -0.879497,-2.726502 c 0.09705,-0.02553 0.194846,-0.04796 0.293281,-0.06735 0.02174,0.164656 0.172763,0.280578 0.337432,0.258928 0.164744,-0.0217 0.280616,-0.17275 0.258967,-0.337419 0.100139,-0.0068 0.200394,-0.01039 0.300725,-0.01081 l -0.143872,2.861133 z m 0,0 0.164517,-1.895637 -0.143771,-2.861133 c 0.100344,4.8e-4 0.200611,0.004 0.300726,0.01081 -0.02164,0.164669 0.09421,0.31572 0.258877,0.337419 0.164669,0.02165 0.315745,-0.09427 0.337509,-0.258928 0.09843,0.0194 0.196182,0.04182 0.293242,0.06735 l -0.879496,2.726502 z m 0,0 0.649715,-1.788394 0.601553,-2.800971 c 0.09678,0.02637 0.192695,0.05584 0.287617,0.08832 -0.06361,0.153418 0.0093,0.329401 0.162658,0.392988 0.153595,0.06353 0.32954,-0.0094 0.39305,-0.162773 0.09016,0.04414 0.178771,0.09118 0.265776,0.140958 l -1.555124,2.405959 z m 0,0 1.090392,-1.559388 1.305996,-2.549755 c 0.08665,0.05058 0.171695,0.103794 0.254958,0.159769 -0.101133,0.131755 -0.07624,0.320555 0.05557,0.421675 0.131755,0.101095 0.320606,0.07629 0.421688,-0.05556 0.07553,0.06602 0.149064,0.134351 0.220236,0.205027 l -2.124834,1.92141 z m 0,0 1.456869,-1.224005 1.921371,-2.124911 c 0.07074,0.07122 0.139061,0.144713 0.204914,0.220289 -0.131654,0.101107 -0.156524,0.289984 -0.05544,0.421739 0.101133,0.13178 0.289984,0.156587 0.421612,0.05548 0.05598,0.08333 0.109278,0.168334 0.159731,0.255009 l -2.549806,1.306059 z m 0,0 1.723943,-0.805308 2.405908,-1.55515 c 0.04979,0.08712 0.09678,0.17578 0.140945,0.26584 -0.153291,0.06357 -0.226295,0.239493 -0.162708,0.392975 0.06356,0.15343 0.23943,0.226346 0.393025,0.162772 0.03235,0.09492 0.06188,0.190836 0.08833,0.287642 l -2.800996,0.601591 z m 0,0 1.87372,-0.331666 2.726388,-0.879471 c 0.02558,0.09702 0.04798,0.194845 0.06735,0.29328 -0.164669,0.02174 -0.28054,0.17275 -0.258878,0.337419 0.02166,0.164758 0.172713,0.280603 0.337382,0.258954 0.0069,0.10014 0.01042,0.200395 0.01079,0.300738 l -2.861172,-0.143871 z m 0,0 1.895586,0.164491 2.861172,-0.143744 c -3.6e-4,0.100342 -0.0039,0.200584 -0.01079,0.300726 -0.164668,-0.02164 -0.315718,0.09421 -0.337381,0.258877 -0.02166,0.164669 0.09421,0.315693 0.258877,0.337508 -0.01937,0.09841 -0.04177,0.196157 -0.06735,0.293217 l -2.726388,-0.879472 z m 0,0 1.788446,0.649689 2.800996,0.60158 c -0.02645,0.09678 -0.05598,0.192668 -0.08833,0.28759 -0.153595,-0.06359 -0.329465,0.0093 -0.393025,0.162683 -0.06359,0.153597 0.0094,0.32949 0.162708,0.393052 -0.04416,0.09014 -0.09116,0.178745 -0.140945,0.265776 L 19.72394,18.805183 Z m 0,0 1.559249,1.090393 2.549806,1.305996 c -0.05045,0.08665 -0.103756,0.171694 -0.159731,0.254957 -0.131628,-0.101133 -0.320479,-0.07624 -0.421612,0.05552 -0.101082,0.131805 -0.07621,0.320479 0.05544,0.421713 -0.06585,0.07555 -0.134174,0.149091 -0.204914,0.220263 l -1.921371,-2.124834 z m 0,0 1.224005,1.456843 2.124834,1.921398 c -0.07117,0.07071 -0.144711,0.139061 -0.220236,0.204912 -0.101082,-0.131653 -0.289933,-0.156523 -0.421688,-0.05547 -0.131807,0.101158 -0.156702,0.29001 -0.05557,0.421638 -0.08326,0.05598 -0.168308,0.109278 -0.254958,0.159729 l -1.305996,-2.549831 z m 0,0 0.805245,1.723943 1.555124,2.405908 c -0.087,0.04979 -0.175614,0.09678 -0.265776,0.14092 -0.06351,-0.15329 -0.239455,-0.226296 -0.39305,-0.162734 -0.153393,0.06361 -0.226271,0.239532 -0.162658,0.393076 -0.09492,0.03233 -0.190837,0.06188 -0.287617,0.0883 l -0.601553,-2.800971 z m 0,0 0.331604,1.873669 0.879496,2.726438 c -0.09706,0.02556 -0.194808,0.04798 -0.293242,0.06735 -0.02176,-0.164669 -0.17284,-0.280541 -0.337509,-0.258878 -0.164667,0.02164 -0.280514,0.172687 -0.258877,0.337356 -0.100115,0.0069 -0.200382,0.01044 -0.300726,0.01081 l 0.143771,-2.861172 z" /><path
       inkscape:connector-curvature="0"
       id="path2132"
       style="fill:#000066;stroke-width:0.04"
       d="m 18.970878,17.999989 c 0,0.536058 -0.434823,0.970881 -0.970881,0.970881 -0.536133,0 -0.970791,-0.434823 -0.970791,-0.970881 0,-0.536134 0.434658,-0.970804 0.970791,-0.970804 0.536058,0 0.970881,0.43467 0.970881,0.970804 z" /><rect
       id="rect2172"
       style="fill:#ff9933;stroke-width:0.03265986"
       y="3.1424516e-15"
       x="0"
       height="12"
       width="36" /><rect
       id="rect3146"
       style="fill:#138808;stroke-width:0.03265986"
       y="24"
       x="0"
       height="12"
       width="36" /></g></svg>